<svg version="1.2" xmlns="http://www.w3.org/2000/svg" viewBox="0 0 512 512" width="512" height="512">
	<title>photoshop-svg</title>
	<style>
		.s0 { fill: #00758f } 
		.s1 { fill: #f29111 } 
	</style>
	<g id="Layer">
		<g id="Layer">
		</g>
		<g id="Layer">
		</g>
		<g id="Folder 1">
			<path id="Layer" class="s0" d="m123.1 378.6h-19.8q-1-50-5.7-94.3l-30.3 94.3h-15l-29.9-94.3q-3.3 42.4-4.2 94.3h-18.2q1.8-63.1 8.8-118.4h24.5l28.5 87 28.7-87h23.4q7.7 64.7 9.1 118.4z"/>
			<path id="Layer" class="s0" d="m208.8 291.3q-12.1 65.5-31.8 95.4-15.4 23-33.8 22.9-1.5-0.1-3.1-0.3-1.5-0.2-3.1-0.6-1.5-0.3-2.9-0.8-1.5-0.6-2.9-1.2v-10.5q1 0.1 2 0.2 1.1 0.1 2.1 0.2 1.1 0 2.1 0 1.1 0.1 2.1 0.1 1.9 0 3.7-0.2 1.9-0.3 3.7-0.9 1.7-0.6 3.3-1.5 1.7-1 3.1-2.2 1.4-1.2 2.6-2.6 1.1-1.5 2-3.2 0.8-1.7 1.2-3.5 0.4-1.8 0.5-3.7-0.3-2.5-0.8-5.1-0.4-2.6-1-5.1-0.7-2.5-1.4-5-0.8-2.5-1.7-4.9l-21.7-67.5h19.4l15.6 50.5q5.2 17.2 4.4 24 3.3-9 6-18.2 2.8-9.2 5.1-18.5 2.2-9.4 3.9-18.8 1.7-9.5 2.8-19z"/>
			<path id="Layer" class="s1" d="m295.3 345.8q0.1 3.5-0.6 6.9-0.6 3.5-2.1 6.7-1.4 3.2-3.5 6-2.1 2.8-4.8 5.1-3.1 2.5-6.6 4.4-3.5 1.9-7.2 3.2-3.8 1.2-7.8 1.7-3.9 0.6-7.9 0.4-4.5-0.1-8.9-0.8-4.5-0.7-8.7-2.1-4.3-1.4-8.3-3.4-4-2-7.7-4.6l5.1-10.1q2.9 1.6 6 2.8 3.1 1.2 6.3 2.1 3.2 0.9 6.4 1.4 3.3 0.5 6.6 0.7 2.2 0.1 4.4-0.2 2.2-0.2 4.4-0.8 2.1-0.6 4.1-1.5 2-1 3.8-2.3 1.5-1.1 2.7-2.6 1.2-1.5 2.1-3.2 0.8-1.7 1.2-3.5 0.4-1.9 0.4-3.8c0-7-4.9-13-13.9-18.1-8.3-4.5-25-14-25-14-2.1-1.3-4-2.9-5.7-4.7-1.7-1.8-3.2-3.8-4.4-6-1.2-2.2-2.1-4.5-2.6-7-0.6-2.4-0.8-4.9-0.8-7.3q-0.1-3.3 0.5-6.6 0.6-3.2 2-6.2 1.3-3 3.2-5.7 1.9-2.6 4.4-4.8 2.7-2.3 5.8-4 3-1.7 6.4-2.9 3.3-1.1 6.8-1.6 3.5-0.5 7-0.4 3.9 0 7.9 0.5 3.9 0.6 7.7 1.7 3.8 1.1 7.4 2.8 3.5 1.7 6.8 3.8l-4.2 9.9q-2.7-1.2-5.5-2.1-2.8-0.9-5.6-1.6-2.9-0.6-5.8-0.9-2.9-0.3-5.9-0.4-1.8-0.1-3.7 0.1-1.8 0.2-3.6 0.7-1.8 0.6-3.5 1.4-1.7 0.9-3.2 2-1.2 1-2.2 2.3-0.9 1.3-1.6 2.7-0.7 1.5-1.1 3.1-0.3 1.5-0.3 3.2c0 7 5 13 14.2 18.2 8.3 4.5 25.3 14.2 25.3 14.2 9.2 6.6 13.8 13.6 13.8 25z"/>
			<path id="Layer" fill-rule="evenodd" class="s1" d="m400.9 381.6l-7.7 13.3-28.2-16.5q-1.9 0.6-3.8 1-2 0.4-3.9 0.6-1.9 0.3-3.9 0.4-1.9 0.1-3.9 0.1c-15 0-26.3-4.4-33.7-13.1q-12.3-14.2-12.3-45.9 0-31.7 13.8-48c2.2-2.5 4.6-4.8 7.3-6.7 2.7-2 5.6-3.6 8.6-4.9 3.1-1.3 6.2-2.2 9.5-2.8 3.3-0.6 6.6-0.8 9.9-0.6q45.8 0 45.8 58.7 0 32-13.8 48.2-0.6 0.8-1.3 1.5-0.6 0.7-1.3 1.3-0.7 0.7-1.4 1.3-0.7 0.6-1.4 1.2l21.7 10.7zm-70.2-26.6q1.6 2.6 3.9 4.7 2.3 2.1 5 3.5 2.8 1.4 5.8 2 3 0.7 6.1 0.4 27.1 0.1 27.1-45 0-25.3-7.2-36.8-1.6-2.7-3.9-4.7-2.3-2.1-5-3.6-2.8-1.4-5.8-2-3-0.6-6.1-0.4-27.1 0-27.1 44.7c0 17.1 2.4 29.4 7.1 37.1z"/>
			<path id="Layer" class="s1" d="m471.7 378.6h-56.1v-118.4h18.9v103.8h37.2v14.6z"/>
			<path id="Layer" class="s1" d="m485.2 378.6v-12.1h-4.2v-2.4h11.5v2.4h-4.2v12.1h-3.1zm23.9 0v-11l-4.1 11h-2.2l-4.1-11v11h-2.8v-14.5h4.1l4 9.9 3.6-9.9h4.4v14.5h-2.9z"/>
			<path id="Layer" fill-rule="evenodd" class="s0" d="m495.6 220.9c-0.4-3-7.6-6.5-9.8-8.3-4.6-3.3-9.4-6.7-14.3-9.7q-1.2-0.6-2.4-1.1-1.2-0.6-2.4-1.1-1.3-0.5-2.5-1-1.3-0.5-2.5-1c-3.9-1.5-12.4-3.1-14.6-6.1q-1.5-2.3-2.9-4.6-1.4-2.3-2.7-4.7-1.3-2.4-2.4-4.9-1.1-2.5-2.1-5c-3-6.7-6.7-13.8-9.7-20.8-1.7-3.4-2.4-6.5-4.2-9.7q-3.8-7.5-8.6-14.4-4.7-6.9-10.4-13-5.6-6.2-12-11.6-6.4-5.4-13.4-10-2.4-1.5-4.9-2.9-2.5-1.4-5.1-2.6-2.6-1.3-5.2-2.4-2.7-1-5.4-1.9c-4.3-1.3-9.4-0.6-14-1.6h-3c-2.5-0.7-4.6-3.4-6.6-4.8q-1.7-1.2-3.5-2.2-1.7-1-3.5-2-1.8-0.9-3.7-1.7-1.9-0.8-3.8-1.6c-1.8-0.8-7.1-2.8-9-1.3q-0.3 0.1-0.7 0.2-0.3 0.2-0.6 0.5-0.2 0.2-0.4 0.5-0.2 0.4-0.3 0.7c-1.1 1.7-0.1 4.3 0.6 5.9q0.9 1.5 1.8 2.9 0.9 1.5 1.9 2.9 1 1.3 2 2.7 1 1.3 2.2 2.6 1 1.3 1.9 2.7 1 1.3 1.9 2.7 0.9 1.4 1.7 2.8 0.8 1.4 1.6 2.8c3.7 8.1 5.4 17 8.9 25q0.5 1.2 1.1 2.4 0.6 1.2 1.2 2.3 0.6 1.2 1.3 2.3 0.7 1.1 1.5 2.1c1.5 2.3 4.4 3.8 5.2 6.5 1.8 2.8-2.5 12.3-3.5 15.3q-1.4 4.7-1.9 9.5-0.6 4.8-0.5 9.7 0.2 4.8 1.1 9.6 0.9 4.8 2.6 9.4c1.7 4 3.3 8.7 7.8 9.8 0.3-0.3 0-0.3 0.6-0.3q0.1-2.7 0.5-5.4 0.3-2.8 0.8-5.5 0.6-2.7 1.3-5.4 0.7-2.6 1.6-5.2 0.7-1.3 1.5-2.6 0.8-1.2 1.7-2.4 0.8-1.2 1.8-2.4 0.9-1.1 1.9-2.2c1.4 0.9 1.4 3.4 2.3 5.1 2 4.4 3.8 9.3 6.1 13.8q1.8 3.4 3.6 6.7 1.9 3.4 3.9 6.6 2 3.3 4.1 6.4 2.1 3.2 4.4 6.3 0.8 1.1 1.7 2.3 0.9 1.1 1.8 2.1 1 1.1 1.9 2.2 1 1 2 2 0.5 0.3 0.9 0.6 0.4 0.4 0.9 0.7 0.4 0.4 0.8 0.8 0.3 0.3 0.7 0.8h0.3v0.2c-4.3-1.6-7-6-10.4-8.6q-2.7-2-5.2-4.2-2.5-2.3-4.9-4.7-2.3-2.5-4.4-5.1-2.1-2.6-4-5.4c-1.7-4-3.9-7.7-5.9-11.9v-0.2c-1 1.3-0.5 2.4-1 4.1-1.8 7.2-0.4 15.3-6.8 17.9-7.3 3.1-12.7-4.8-15-8.4-7.3-11.8-9.3-31.8-4.2-48q0.3-1.4 0.6-2.7 0.3-1.4 0.7-2.8 0.4-1.3 0.9-2.6 0.5-1.3 1.1-2.6c-0.4-2.6-2.4-3.3-3.5-4.9q-0.8-1-1.5-2.1-0.7-1.1-1.4-2.2-0.6-1.1-1.2-2.3-0.7-1.1-1.2-2.3-1.1-2.3-2.1-4.7-1-2.3-1.9-4.7-1-2.4-1.8-4.8-0.9-2.5-1.7-4.9c-1-2.6-1.2-5.1-2.2-7.6q-0.8-1.4-1.7-2.8-0.8-1.4-1.7-2.7-0.9-1.4-1.9-2.7-1-1.3-2-2.5c-3.3-4.7-12.8-13.8-9-23.2 5.9-14.7 26.8-3.6 35.1 1.6q0.8 0.7 1.6 1.3 0.8 0.7 1.6 1.3 0.8 0.7 1.7 1.2 0.8 0.6 1.7 1.2c3.5 0.1 7.1 0.6 10.6 0.6q2.4 0.4 4.7 1 2.4 0.5 4.7 1.3 2.3 0.7 4.5 1.6 2.2 0.9 4.4 1.9 8.6 4.7 16.4 10.5 7.9 5.7 14.9 12.5 7 6.8 13.1 14.4 6 7.7 11 16.1 1 2 1.9 4.1 1 2.1 1.9 4.1 0.9 2.1 1.8 4.2 0.8 2.1 1.6 4.2c3.3 8.4 7.5 17.2 11.6 25q0.6 1.5 1.3 2.9 0.6 1.4 1.4 2.8 0.7 1.4 1.5 2.7 0.8 1.4 1.7 2.6c1 1.5 3.8 1.9 5.6 2.8 4.7 2.4 10.4 4.3 14.8 7.1q3.1 2 6.1 4.1 3 2.1 6 4.3 2.9 2.2 5.8 4.5 2.9 2.3 5.6 4.7c2.7 2.3 4.6 5.8 7.2 8.3v1.3c-2.3 0.7-4.6 1.4-6.9 2-5 1.3-9.4 1-14.3 2.3q-1.2 0.4-2.4 0.7-1.2 0.4-2.4 0.7-1.3 0.3-2.5 0.5-1.2 0.2-2.5 0.4l0.3 0.3c1.8 5 11.8 9.3 16.4 12.5q2.1 1.5 4.1 3.2 2 1.7 3.9 3.5 1.8 1.8 3.6 3.7 1.7 2 3.2 4.1l4.2 4.1c1 1.4 1.3 3.3 2.3 4.6v0.4c-2-0.7-3-2.6-4.5-3.7-3.2-2.1-6.3-4.7-9.5-6.7-5.4-3.4-11.7-5.4-17.2-8.9-3.2-2-6.2-4.3-9.2-6.5q-1.1-1-2.1-2-1-1-1.9-2.1-1-1.1-1.8-2.2-0.8-1.2-1.6-2.5c-1-1.5-1.1-3.4-2.2-4.5 0.2-2.7 3.7-2.7 5.8-3.6q3.3-1.3 6.7-2.2 3.4-0.9 6.9-1.4 3.5-0.5 7-0.7 3.5-0.1 7.1 0.1z"/>
			<path id="Layer" fill-rule="evenodd" class="s0" d="m353.8 99.7c0.7 1 0.9 2 1.7 3q0.1 1 0 2-0.2 1-0.5 1.9-0.4 0.9-1.1 1.7-0.6 0.9-1.4 1.5l-0.3 0.3c-1.1-2.3-2.1-4.6-3.2-6.9q-0.6-0.7-1.2-1.4-0.6-0.7-1.2-1.4-0.6-0.8-1.1-1.5-0.6-0.8-1.1-1.5h-0.3v-0.3q0.7-0.2 1.5-0.4 0.7-0.1 1.4-0.2 0.8-0.1 1.5-0.1 0.8-0.1 1.5-0.1c1.1 1.2 3.1 2.4 3.8 3.4z"/>
		</g>
	</g>
</svg>