<svg version="1.2" xmlns="http://www.w3.org/2000/svg" viewBox="0 0 512 512" width="512" height="512">
	<title>photoshop-svg</title>
	<style>
		.s0 { fill: #6884ba } 
		.s1 { fill: #000000 } 
	</style>
	<g id="Layer">
		<g id="Layer">
		</g>
		<g id="Layer">
			<path id="Layer" fill-rule="evenodd" class="s0" d="m256 369.5c-141.6 0-256-58-256-129.8 0-71.7 114.4-129.7 256-129.7 141.6 0 256 58 256 129.7 0 71.8-114.4 129.8-256 129.8zm-36.8-224.1l-9.6 49.2q-1.8-2.8-3.9-5.2c-4.7-5.4-10.8-9.5-18.2-12.2q-10.5-3.8-24.3-3.7h-54.9c-4.3 0-7.8 3.1-8.3 7.2l-25.4 130.8c-0.8 4.5 2.1 8.9 6.6 9.7q0.8 0.2 1.6 0.2h28.6c4.2 0 7.7-3.2 8.2-7.2l5.4-27.7h17.7q8.4 0 15.8-1c5-0.6 9.5-1.5 13.4-2.8 4.1-1.4 7.9-3.1 11.7-5.4q5.4-3.2 10.4-7.8l1.2-1.2-1.5 7.8q-0.2 1-0.2 2.1c0 4.5 3.7 8.3 8.3 8.3h28.4c3.9 0 7.4-2.8 8.1-6.8l13.2-68.4h15.9q4.5 0 7 0.6l1.1 0.3c0.2 0.2-0.2 0-0.1 0.4q0.2 2.1-0.5 5.9l-11.2 57.5q-0.2 1.1-0.2 2.1c0 4.6 3.7 8.4 8.3 8.4h28.8q1.1 0 2.1-0.3l-4.9 25.3c-0.8 4.5 2.1 8.9 6.6 9.7q0.8 0.2 1.6 0.2h28.6c4.2 0 7.7-3.2 8.2-7.2l5.5-27.7h17.7q8.3 0 15.8-1c5-0.6 9.5-1.5 13.4-2.8 4.1-1.4 7.9-3.1 11.7-5.4q5.4-3.2 10.4-7.8c2.7-2.5 5.1-5.2 7.3-7.9 2.2-2.7 4.2-5.7 5.9-8.8q2.6-4.5 4.4-9.6 1.8-5.1 2.9-10.5c1.7-8.7 1.8-16.7 0.5-23.8q-2.1-11.3-9.3-19.5-7.2-8.2-18.2-12.2-10.5-3.8-24.3-3.7h-55c-4.2 0-7.7 3.1-8.3 7.2l-2.9 15.3q-2.2-7.1-7.5-12c-4.1-3.8-9.6-6.5-16.4-8.2q-9.3-2.3-22.2-2.3h-15.2l4.8-24.5q0.2-1 0.2-2.1c0-4.6-3.7-8.3-8.3-8.3h-28.4c-3.9 0-7.4 2.8-8.1 6.8zm173.3 72.3q0.5 4-0.7 10c-0.8 4.3-2.1 7.8-3.6 10.7q-1.9 3.9-4.7 6-2.9 2.2-7.7 3.4c-3.6 0.9-7.9 1.4-13.1 1.4h-7.2l7.4-38.3h12.7q12.6 0 15.6 3.2 1 1.1 1.3 3.6zm-223.3 0q0.6 4-0.6 10c-0.9 4.3-2.1 7.8-3.6 10.7q-1.9 3.9-4.7 6-2.9 2.2-7.7 3.4c-3.6 0.9-7.9 1.4-13.1 1.4h-7.2l7.4-38.3h12.8q12.6 0 15.5 3.2 0.9 1.1 1.2 3.6z"/>
			<path id="Layer" fill-rule="evenodd" class="s1" d="m331.5 181.8l55-0.1c16.5 0 28.6 4.4 36.2 13.1q11.4 13.1 6.8 36.4-1.9 9.6-6.3 17.5c-3 5.4-6.9 10.2-11.7 14.6-5.7 5.4-12 9.2-19 11.4-7 2.3-15.9 3.5-26.7 3.5h-24.5l-6.8 34.9h-28.5zm-104.2-34.8h28.4l-6.8 34.9h25.3q23.9 0 32.9 8.3 9.1 8.3 5.4 27l-11.8 61h-28.9l11.3-58c1.3-6.7 0.8-11.2-1.4-13.5-2.2-2.5-7-3.7-14.2-3.7h-22.7l-14.6 75.2h-28.4zm-119.1 34.9h55c16.6 0 28.7 4.4 36.3 13q11.3 13.1 6.8 36.4-1.9 9.6-6.3 17.6c-3 5.3-6.9 10.1-11.7 14.6-5.7 5.3-12 9.1-19 11.4-7 2.3-15.9 3.4-26.7 3.4h-24.5l-6.8 34.9h-28.6zm44.2 20.8h-19.6l-10.6 54.9h17.3c11.5 0 20.2-2.1 25.8-6.5 5.6-4.3 9.4-11.6 11.4-21.7q2.9-14.7-2.6-20.7-5.4-6-21.7-6zm223.2 0h-19.6l-10.7 55h17.4c11.5 0 20.1-2.2 25.8-6.5 5.6-4.4 9.4-11.6 11.4-21.8 1.8-9.8 1-16.7-2.6-20.7q-5.4-6-21.7-6z"/>
		</g>
	</g>
</svg>