<?xml version="1.0" encoding="utf-8"?>
<!-- Generator: Adobe Illustrator 25.0.0, SVG Export Plug-In . SVG Version: 6.00 Build 0)  -->
<svg version="1.1" id="Layer_1" xmlns="http://www.w3.org/2000/svg" xmlns:xlink="http://www.w3.org/1999/xlink" x="0px" y="0px"
	 viewBox="0 0 200 200" style="enable-background:new 0 0 200 200;" xml:space="preserve">
<style type="text/css">
	.st0{fill:url(#SVGID_1_);}
	.st1{fill:url(#SVGID_2_);stroke:#FFFFFF;}
</style>
<g>
	
		<linearGradient id="SVGID_1_" gradientUnits="userSpaceOnUse" x1="21.0239" y1="164.6969" x2="193.8509" y2="27.5068" gradientTransform="matrix(1 0 0 -1 0 202)">
		<stop  offset="0" style="stop-color:#9013FE"/>
		<stop  offset="1" style="stop-color:#6610F2"/>
	</linearGradient>
	<path class="st0" d="M22.9,41.8c-0.4-10.7,8-20.6,19.3-20.6h115.6c11.3,0,19.6,9.9,19.3,20.6c-0.4,10.3,0.1,23.6,3.5,34.5
		c3.4,10.9,9,17.8,18.3,18.7v10c-9.3,0.9-15,7.8-18.3,18.7c-3.4,10.9-3.8,24.2-3.5,34.5c0.4,10.7-8,20.6-19.3,20.6H42.2
		c-11.3,0-19.6-9.9-19.3-20.6c0.4-10.3-0.1-23.6-3.5-34.5c-3.4-10.9-9.1-17.8-18.4-18.7V95c9.3-0.9,15-7.8,18.4-18.7
		C22.8,65.4,23.3,52.1,22.9,41.8z"/>
	
		<linearGradient id="SVGID_2_" gradientUnits="userSpaceOnUse" x1="74.1753" y1="137.4157" x2="112.8067" y2="72.0815" gradientTransform="matrix(1 0 0 -1 0 202)">
		<stop  offset="0" style="stop-color:#FFFFFF"/>
		<stop  offset="1" style="stop-color:#F1E5FC"/>
	</linearGradient>
	<path class="st1" d="M104.3,141.9c18.3,0,29.3-8.9,29.3-23.7c0-11.2-7.9-19.2-19.5-20.5v-0.5c8.6-1.4,15.3-9.4,15.3-18.2
		c0-12.7-10-20.9-25.2-20.9H69.8v83.8H104.3z M83.2,68.7h17.7c9.6,0,15.1,4.3,15.1,12.1c0,8.3-6.4,13-17.9,13H83.2
		C83.2,93.7,83.2,68.7,83.2,68.7z M83.2,131.3v-27.6h17.6c12.6,0,19.2,4.6,19.2,13.7c0,9.1-6.4,13.9-18.4,13.9H83.2z"/>
</g>
</svg>
