<?xml version="1.0" encoding="utf-8"?>
<!-- Generator: Adobe Illustrator 25.0.0, SVG Export Plug-In . SVG Version: 6.00 Build 0)  -->
<svg version="1.1" id="Layer_1" xmlns="http://www.w3.org/2000/svg" xmlns:xlink="http://www.w3.org/1999/xlink" x="0px" y="0px"
	 viewBox="0 0 200 200" style="enable-background:new 0 0 200 200;" xml:space="preserve">
<style type="text/css">
	.st0{fill:#330000;}
	.st1{fill:#FF9A00;}
</style>
<g>
	<path class="st0" d="M40.9,10.8h118.2c17.9,0,32.4,14.5,32.4,32.4v113.6c0,17.9-14.5,32.4-32.4,32.4H40.9
		c-17.9,0-32.4-14.5-32.4-32.4V43.2C8.5,25.3,23,10.8,40.9,10.8z"/>
	<path class="st1" d="M96.9,117.5H68.6l-5.8,17.9c-0.2,0.7-0.8,1.1-1.4,1.1H47c-0.8,0-1.1-0.5-0.8-1.4l24.6-70.7
		c0.2-0.8,0.5-1.6,0.8-2.5c0.3-1.6,0.5-3.3,0.5-5c-0.1-0.4,0.2-0.8,0.6-0.8h19.7c0.6,0,0.9,0.2,1,0.6l27.8,78.5
		c0.2,0.8,0,1.2-0.8,1.2h-15.9c-0.5,0.1-1.1-0.3-1.2-0.8L96.9,117.5z M73,102.1h19.4c-0.5-1.6-1.1-3.5-1.8-5.5
		c-0.7-2.1-1.4-4.3-2.1-6.6c-0.8-2.4-1.4-4.7-2.2-7c-0.8-2.4-1.4-4.6-2.1-6.8c-0.6-2.1-1.1-4.1-1.7-5.9h-0.2
		c-0.7,3.3-1.5,6.6-2.6,9.8c-1.1,3.7-2.3,7.5-3.5,11.3C75.3,95.3,74.2,98.9,73,102.1z M138.1,69.5c-2.5,0.1-5-0.9-6.8-2.7
		c-1.8-1.9-2.7-4.4-2.6-7c-0.1-2.6,0.9-5,2.7-6.8c1.8-1.8,4.3-2.7,6.8-2.7c3,0,5.3,0.9,6.9,2.7c1.7,1.8,2.6,4.3,2.5,6.8
		c0.1,2.6-0.8,5.1-2.7,7C143.3,68.7,140.7,69.7,138.1,69.5L138.1,69.5z M129.6,135.7V77c0-0.8,0.3-1.1,1-1.1h15.1c0.7,0,1,0.4,1,1.1
		v58.7c0,0.8-0.3,1.2-1,1.2h-14.9C130,136.9,129.6,136.4,129.6,135.7z"/>
</g>
</svg>
