<?xml version="1.0" encoding="utf-8"?>
<!-- Generator: Adobe Illustrator 25.0.0, SVG Export Plug-In . SVG Version: 6.00 Build 0)  -->
<svg version="1.1" id="Layer_1" xmlns="http://www.w3.org/2000/svg" xmlns:xlink="http://www.w3.org/1999/xlink" x="0px" y="0px"
	 viewBox="0 0 200 200" style="enable-background:new 0 0 200 200;" xml:space="preserve">
<style type="text/css">
	.st0{fill:#F7DF1E;}
</style>
<g>
	<rect x="25" y="25" class="st0" width="150" height="150"/>
	<path d="M125.7,142.2c3,4.9,7,8.5,13.9,8.5c5.9,0,9.6-2.9,9.6-7c0-4.8-3.8-6.5-10.3-9.4l-3.5-1.5c-10.2-4.4-16.9-9.8-16.9-21.2
		c0-10.6,8-18.6,20.6-18.6c8.9,0,15.4,3.1,20,11.2l-11,7.1c-2.4-4.4-5-6.1-9.1-6.1c-4.1,0-6.8,2.6-6.8,6.1c0,4.2,2.6,5.9,8.7,8.6
		l3.5,1.5c12,5.1,18.8,10.4,18.8,22.1c0,12.7-10,19.6-23.3,19.6c-13.1,0-21.5-6.2-25.6-14.4L125.7,142.2z M76,143.4
		c2.2,3.9,4.2,7.3,9.1,7.3c4.7,0,7.6-1.8,7.6-8.9v-48h14.1V142c0,14.6-8.6,21.2-21.1,21.2c-11.2,0-17.8-5.9-21.2-12.9L76,143.4z"/>
</g>
</svg>
