<?xml version="1.0" encoding="utf-8"?>
<!-- Generator: Adobe Illustrator 25.0.0, SVG Export Plug-In . SVG Version: 6.00 Build 0)  -->
<svg version="1.1" id="Layer_1" xmlns="http://www.w3.org/2000/svg" xmlns:xlink="http://www.w3.org/1999/xlink" x="0px" y="0px"
	 viewBox="0 0 200 200" style="enable-background:new 0 0 200 200;" xml:space="preserve">
<style type="text/css">
	.st0{fill-rule:evenodd;clip-rule:evenodd;fill:#00678C;}
	.st1{fill-rule:evenodd;clip-rule:evenodd;fill:#CE8B2C;}
</style>
<g transform="matrix(.037376 0 0 .037376 1.069994 -1.319339)">
	<path class="st0" d="M141.3,3780.3h165.4v-655.2L565,3696.4c29.3,68.7,71.3,94.1,152.7,94.1s120.9-25.5,151.1-94.1l257-571.2v655.2
		h166.7v-655.2c0-63.6-25.5-94.2-78.9-110.7c-126-38.2-209.9-5.1-248.1,80.1l-253.2,564.9L468,3094.5
		c-36.9-85.2-122.2-118.3-249.4-80.1c-52.2,16.5-77.6,47.1-77.6,110.7l0,655.2H141.3z M1430.1,3247.3h166.7v360.1
		c-1.3,20.3,6.4,66.2,97,67.4c47,1.3,358.8,0,361.3,0v-430h166.7v589.1c0,145-179.6,176.8-263.4,178.1h-524.1v-110.6h525.4
		c106.9-11.5,94.2-64.9,94.2-82.7v-43.3h-352.4c-164.1-1.3-269.8-73.8-271-156.5v-371.5L1430.1,3247.3z M5005.2,2829.9
		c-101.7-2.6-180.7,7.6-246.8,35.6c-19,7.7-49.6,7.7-52.1,31.8c10.2,10.1,11.4,26.7,20.3,40.7c15.3,25.5,42,59.8,66.2,77.6
		c26.7,20.4,53.5,40.7,81.4,58.5c49.6,30.5,105.6,48.3,153.9,78.9c28,17.8,56,40.7,84,59.8c14.3,10.2,22.9,26.7,40.7,33.1v-3.8
		c-8.9-11.4-11.5-27.9-20.3-40.7c-12.7-12.7-25.5-24.2-38.2-36.9c-36.9-49.6-82.7-92.9-132.3-128.5c-40.7-28-129.7-66.2-146.3-113.2
		l-2.5-2.6c27.9-2.6,61-12.7,87.8-20.4c43.3-11.4,82.7-8.9,127.2-20.3c20.4-5.1,40.7-11.5,61.1-17.8v-11.4
		c-22.9-22.9-39.4-53.4-63.6-75.1c-64.9-56-136.2-110.7-210-156.5c-39.4-25.4-90.3-42-132.3-63.6c-15.3-7.6-40.7-11.5-49.6-24.2
		c-23-27.9-35.6-64.9-52.2-98c-36.9-70-72.5-147.6-104.3-221.4c-22.9-49.6-36.9-99.2-64.9-145c-131.1-216.3-273.6-347.3-492.4-475.8
		c-47-26.7-103-38.2-162.5-52.2l-95.4-5.1c-20.4-8.9-40.7-33.1-58.5-44.5c-72.5-45.8-259.5-145-313-14
		c-34.4,82.7,50.9,164.1,79.8,206.1c21.7,29.3,49.6,62.3,64.9,95.4c8.6,21.6,11.4,44.5,20.3,67.4c20.3,56,39.4,118.3,66.2,170.5
		c14.3,26.7,29.2,54.7,47,78.9c10.2,14,28,20.4,31.8,43.3c-17.8,25.5-19,63.6-29.2,95.4c-45.8,143.8-28,321.9,36.9,427.4
		c20.4,31.8,68.4,101.8,133.6,75.1c57.3-22.9,44.5-95.4,61-159c3.8-15.3,1.3-25.4,8.9-35.6v2.6l52.2,105.6
		c39.4,62.3,108.2,127.2,165.4,170.5c30.5,22.9,54.7,62.4,92.8,76.3v-3.8h-2.5c-7.6-11.4-19.1-16.5-29.3-25.4
		c-22.9-22.9-48.3-50.9-66.2-76.3c-53.4-71.2-100.5-150.1-142.5-231.5c-20.4-39.4-38.2-82.7-54.7-122.1
		c-7.7-15.3-7.7-38.2-20.4-45.8c-19.1,27.9-47,52.2-61.1,86.5c-24.2,54.7-26.7,122.1-35.6,192.1c-5.1,1.3-2.9,0-5.1,2.6
		c-40.7-10.2-54.7-52.2-69.9-87.8c-38.2-90.3-44.5-235.4-11.5-339.7c8.9-26.7,47.1-110.7,31.9-136.1c-7.7-24.2-33.1-38.2-47.1-57.3
		c-16.5-24.2-34.3-54.7-45.8-81.4c-30.5-71.3-45.8-150.1-78.9-221.4c-15.3-33.1-42-67.4-63.6-97.9c-24.2-34.4-50.8-58.5-69.9-99.2
		c-6.4-14-15.3-36.9-5.1-52.2c2.5-10.2,7.6-14,17.8-16.5c16.5-14,63.6,3.8,80.2,11.4c47,19.1,86.5,36.9,125.9,63.6
		c17.8,12.7,36.9,36.9,59.8,43.3h26.7c40.7,8.9,86.5,2.6,124.6,14c67.4,21.7,128.5,53.4,183.2,87.8
		c166.6,105.6,304.1,255.7,396.9,435.1c15.3,29.3,21.6,56,35.6,86.5c26.7,62.4,59.8,126,86.5,187.1c26.7,59.8,52.2,120.9,90.3,170.5
		c19.1,26.7,95.4,40.7,129.7,54.7c25.5,11.4,64.9,21.7,87.8,35.6c43.2,26.7,86.5,57.3,127.2,86.5c20.3,15.2,84,47,87.8,72.4
		L5005.2,2829.9z M3707.7,1724.4c-17.6-0.2-35.1,2-52.1,6.4v2.6h2.5c10.2,20.4,28,34.4,40.7,52.2l29.3,61.1l2.5-2.6
		c17.8-12.7,26.7-33.1,26.7-63.6c-7.6-8.9-8.9-17.8-15.3-26.7C3734.5,1741,3717.9,1734.6,3707.7,1724.4L3707.7,1724.4z"/>
	<path class="st1" d="M2348.7,3780.3h478.4c56,0,109.4-11.4,152.7-31.8c72.5-33.1,106.9-77.6,106.9-136.1v-122.1
		c0-47-39.4-91.6-118.3-122.1c-40.7-15.3-91.6-24.2-141.2-24.2h-201c-67.4,0-99.2-20.4-108.2-64.9c-1.3-5.1-1.3-10.2-1.3-15.3v-75.1
		c0-3.8,0-8.9,1.3-14c8.9-34.4,26.7-43.3,85.5-49.6h489.8v-110.7h-465.6c-67.4,0-103.1,3.8-134.9,14
		c-98,30.5-141.2,78.9-141.2,164.1v96.8c0,75,84,138.7,226.5,153.9c15.3,1.3,31.8,1.3,48.3,1.3h171.8c6.4,0,12.7,0,17.8,1.3
		c52.2,5.1,75.1,14,90.3,33c10.2,10.2,12.7,19.1,12.7,30.6v96.7c0,11.4-7.6,26.7-22.9,39.4c-15.3,12.7-39.5,21.6-71.3,22.9
		c-6.4,0-10.1,1.3-16.5,1.3h-459.5V3780.3z M4122.2,3588.2c0,113.2,85.5,176.8,255.8,189.6c16.5,1.3,31.8,2.5,48.3,2.5h432.6v-110.6
		h-436.4c-96.8,0-133.6-24.2-133.6-82.7v-572.5h-167v573.8L4122.2,3588.2z M3192.2,3593.3v-394.4c0-100.5,71.2-161.6,210-180.7
		c15.3-1.3,30.5-2.6,44.5-2.6h315.5c16.5,0,30.6,1.3,47.1,2.6c138.7,19,208.6,80.1,208.6,180.7v394.4c0,81.4-29.2,124.7-98,154
		l162.8,147.5h-192.1l-132.3-119.6l-133.6,7.6h-178.1c-32.6-0.2-65.1-4.4-96.7-12.7C3244.4,3740.9,3192.2,3684.9,3192.2,3593.3z
		 M3371.6,3584.5c0,5.1,2.9,10.1,3.8,16.5c8.9,45.8,52.1,71.2,118.3,71.2h150.2l-137.4-124.7h192.1l120.8,109.4
		c23-12.7,36.9-30.6,42-53.5c1.3-5.1,1.3-11.4,1.3-16.5v-377.9c0-5.1,0-10.1-1.3-15.3c-8.9-43.2-52.1-67.4-117-67.4h-250.6
		c-73.8,0-122.1,31.8-122.1,82.6L3371.6,3584.5z"/>
</g>
</svg>
