<?xml version="1.0" encoding="utf-8"?>
<!-- Generator: Adobe Illustrator 25.0.0, SVG Export Plug-In . SVG Version: 6.00 Build 0)  -->
<svg version="1.1" id="Layer_1" xmlns="http://www.w3.org/2000/svg" xmlns:xlink="http://www.w3.org/1999/xlink" x="0px" y="0px"
	 viewBox="0 0 200 200" style="enable-background:new 0 0 200 200;" xml:space="preserve">
<style type="text/css">
	.st0{fill:#001E36;}
	.st1{fill:#31A8FF;}
</style>
<g id="Layer_2_1_">
	<g id="Surfaces">
		<g id="Photo_Surface">
			<g id="Outline_no_shadow">
				<path class="st0" d="M40.9,10.8h118.2c17.9,0,32.4,14.5,32.4,32.4v113.6c0,17.9-14.5,32.4-32.4,32.4H40.9
					c-17.9,0-32.4-14.5-32.4-32.4V43.2C8.5,25.3,23,10.8,40.9,10.8z"/>
			</g>
		</g>
	</g>
	<g id="Outlined_Mnemonics_Logos">
		<g id="Ps">
			<path class="st1" d="M49.7,135.9V57.5c0-0.5,0.2-0.8,0.8-0.8c1.3,0,2.5,0,4.3-0.1c1.8-0.1,3.7-0.1,5.8-0.2
				c2.1-0.1,4.3-0.1,6.6-0.2c2.4-0.1,4.7-0.1,6.9-0.1c6.3,0,11.4,0.8,15.7,2.4c3.8,1.3,7.3,3.4,10.2,6.3c2.4,2.4,4.3,5.4,5.6,8.7
				c1.1,3.2,1.8,6.5,1.8,9.9c0,6.6-1.5,12-4.6,16.2c-3.1,4.3-7.3,7.5-12.3,9.3c-5.2,1.9-10.9,2.6-17.2,2.6c-1.8,0-3,0-3.8-0.1
				c-0.8-0.1-1.8-0.1-3.3-0.1v24.5c0.1,0.5-0.3,1-0.8,1.1c-0.1,0-0.2,0-0.3,0H50.6C50,136.9,49.7,136.6,49.7,135.9z M66.3,71.3v25.6
				c1.1,0.1,2.1,0.2,3,0.2h4c3,0,5.9-0.5,8.8-1.4c2.4-0.7,4.6-2.1,6.3-4c1.6-1.9,2.4-4.5,2.4-7.9c0.1-2.4-0.5-4.7-1.8-6.8
				c-1.3-2-3.1-3.5-5.3-4.3c-2.8-1.1-5.9-1.6-9-1.5c-2,0-3.7,0-5.2,0.1C67.9,71.2,66.8,71.3,66.3,71.3L66.3,71.3z"/>
			<path class="st1" d="M154.9,92.3c-2.3-1.2-4.7-2.1-7.3-2.6c-2.8-0.6-5.6-1-8.5-1c-1.5-0.1-3.1,0.2-4.6,0.5
				c-1,0.2-1.8,0.8-2.4,1.5c-0.4,0.6-0.6,1.4-0.6,2.1s0.3,1.4,0.8,2c0.7,0.8,1.6,1.5,2.6,2.1c1.8,0.9,3.6,1.8,5.4,2.5
				c4.1,1.4,8.1,3.3,11.7,5.6c2.5,1.6,4.6,3.7,6,6.3c1.2,2.4,1.8,5.1,1.8,7.9c0.1,3.6-1,7.2-3,10.1c-2.1,3.1-5.1,5.4-8.5,6.8
				c-3.7,1.6-8.3,2.4-13.8,2.4c-3.5,0-6.9-0.3-10.4-1c-2.7-0.5-5.3-1.3-7.8-2.4c-0.5-0.3-0.9-0.8-0.8-1.4v-13.3
				c0-0.2,0.1-0.5,0.3-0.7c0.2-0.2,0.5-0.1,0.7,0.1c3,1.8,6.1,3,9.5,3.7c2.9,0.8,5.9,1.1,9,1.1c2.9,0,5-0.4,6.3-1.1
				c1.2-0.5,2.1-1.8,2.1-3.2c0-1.1-0.6-2.1-1.8-3c-1.2-1-3.7-2.1-7.5-3.6c-3.9-1.4-7.5-3.2-10.8-5.5c-2.4-1.7-4.3-3.9-5.8-6.5
				c-1.2-2.4-1.8-5.1-1.8-7.8c0-3.3,0.9-6.4,2.6-9.2c1.9-3,4.7-5.5,8-7c3.6-1.8,8.1-2.7,13.5-2.7c3.1,0,6.3,0.2,9.5,0.7
				c2.3,0.3,4.5,0.9,6.6,1.8c0.3,0.1,0.6,0.4,0.8,0.7c0.1,0.3,0.2,0.6,0.2,0.9v12.4c0,0.3-0.2,0.6-0.4,0.8
				C155.6,92.5,155.2,92.5,154.9,92.3z"/>
		</g>
	</g>
</g>
</svg>
