<?xml version="1.0" encoding="utf-8"?>
<!-- Generator: Adobe Illustrator 25.0.0, SVG Export Plug-In . SVG Version: 6.00 Build 0)  -->
<svg version="1.1" id="Layer_1" xmlns="http://www.w3.org/2000/svg" xmlns:xlink="http://www.w3.org/1999/xlink" x="0px" y="0px"
	 viewBox="0 0 200 200" style="enable-background:new 0 0 200 200;" xml:space="preserve">
<style type="text/css">
	.st0{fill:#00749A;}
	.st1{fill:#464342;}
</style>
<g id="Layer_2_1_">
	<g>
		<path class="st0" d="M115.1,93.1h-7.4v0.8c2.3,0,2.7,0.5,2.7,3.4v5.3c0,3-0.4,3.5-2.7,3.5c-1.8-0.2-3-1.2-4.7-3l-1.9-2.1
			c2.6-0.5,3.9-2.1,3.9-3.9c0-2.3-2-4-5.6-4h-7.3v0.8c2.3,0,2.7,0.5,2.7,3.4v5.3c0,3-0.4,3.5-2.7,3.5v0.8h8.3v-0.8
			c-2.3,0-2.7-0.5-2.7-3.5v-1.5h0.7l4.6,5.8h12.1c5.9,0,8.5-3.2,8.5-6.9C123.6,96.2,121.1,93.1,115.1,93.1z M97.7,99.9v-5.5h1.7
			c1.9,0,2.7,1.3,2.7,2.8c0,1.5-0.8,2.7-2.7,2.7L97.7,99.9L97.7,99.9z M115.2,105.6H115c-1.5,0-1.7-0.4-1.7-2.3v-9c0,0,1.8,0,2,0
			c4.3,0,5.1,3.2,5.1,5.6C120.4,102.5,119.6,105.6,115.2,105.6z"/>
		<path class="st0" d="M69,101.4l2.9-8.5c0.8-2.5,0.5-3.2-2.2-3.2v-0.8h7.8v0.8c-2.6,0-3.2,0.6-4.3,3.7l-4.7,14.2h-0.5l-4.2-13
			l-4.3,13h-0.5l-4.6-14.2c-1-3-1.7-3.7-4.1-3.7v-0.8h9.2v0.8c-2.5,0-3.1,0.6-2.2,3.2l2.8,8.5l4.2-12.5h0.8L69,101.4z"/>
		<path class="st0" d="M83.1,107.5c-4.6,0-8.3-3.4-8.3-7.5c0-4.1,3.7-7.4,8.3-7.4c4.6,0,8.3,3.4,8.3,7.4
			C91.4,104.1,87.7,107.5,83.1,107.5z M83.1,93.8c-3.8,0-5.2,3.4-5.2,6.2c0,2.7,1.3,6.2,5.2,6.2c3.9,0,5.2-3.4,5.2-6.2
			C88.3,97.3,87,93.8,83.1,93.8z"/>
		<path class="st1" d="M133.9,106.1v0.8h-9.5v-0.8c2.8,0,3.3-0.7,3.3-4.9v-6.6c0-4.2-0.5-4.8-3.3-4.8v-0.8h8.6
			c4.3,0,6.7,2.2,6.7,5.2c0,2.9-2.4,5.1-6.7,5.1h-2.4v2C130.6,105.4,131.1,106.1,133.9,106.1z M133,90.4h-2.4v7.2h2.4
			c2.3,0,3.4-1.6,3.4-3.6C136.4,92.1,135.3,90.4,133,90.4z"/>
		<path class="st1" d="M168.2,103l-0.2,0.7c-0.4,1.4-0.8,1.9-3.8,1.9h-0.6c-2.2,0-2.5-0.5-2.5-3.4v-1.9c3.2,0,3.5,0.3,3.5,2.5h0.8
			v-6.2h-0.8c0,2.2-0.2,2.5-3.5,2.5v-4.7h2.3c3,0,3.4,0.5,3.8,1.9l0.2,0.8h0.7l-0.3-3.9h-12.2v0.8c2.3,0,2.7,0.5,2.7,3.4v5.3
			c0,2.7-0.3,3.4-2.2,3.5c-1.7-0.3-2.9-1.2-4.6-3l-1.9-2.1c2.6-0.5,3.9-2.1,3.9-3.9c0-2.3-2-4-5.6-4h-7.3v0.8c2.3,0,2.7,0.5,2.7,3.4
			v5.3c0,3-0.4,3.5-2.7,3.5v0.8h8.3v-0.8c-2.3,0-2.7-0.5-2.7-3.5v-1.5h0.7l4.6,5.8h17.1l0.2-3.9L168.2,103L168.2,103z M146.2,99.9
			v-5.5h1.7c1.9,0,2.7,1.3,2.7,2.8c0,1.5-0.8,2.7-2.7,2.7L146.2,99.9L146.2,99.9z"/>
		<path class="st1" d="M176.6,107.5c-1.7,0-3.1-0.9-3.7-1.4c-0.2,0.2-0.6,0.8-0.7,1.4h-0.8v-5.7h0.8c0.3,2.7,2.2,4.4,4.7,4.4
			c1.3,0,2.4-0.7,2.4-2c0-1.1-1-1.9-2.7-2.7l-2.4-1.1c-1.7-0.8-2.9-2.2-2.9-4c0-2,1.9-3.7,4.4-3.7c1.4,0,2.5,0.5,3.2,1.1
			c0.2-0.2,0.4-0.6,0.5-1.1h0.8v4.9h-0.9c-0.3-2-1.4-3.6-3.6-3.6c-1.2,0-2.2,0.7-2.2,1.7c0,1.1,0.9,1.7,2.9,2.6l2.3,1.1
			c2,1,2.8,2.5,2.8,3.7C181.7,105.6,179.4,107.5,176.6,107.5z"/>
		<path class="st1" d="M189.4,107.5c-1.7,0-3.1-0.9-3.7-1.4c-0.2,0.2-0.6,0.8-0.7,1.4h-0.8v-5.7h0.8c0.3,2.7,2.2,4.4,4.7,4.4
			c1.3,0,2.4-0.7,2.4-2c0-1.1-1-1.9-2.7-2.7l-2.4-1.1c-1.7-0.8-2.9-2.2-2.9-4c0-2,1.9-3.7,4.4-3.7c1.4,0,2.5,0.5,3.2,1.1
			c0.2-0.2,0.4-0.6,0.5-1.1h0.8v4.9h-0.9c-0.3-2-1.4-3.6-3.6-3.6c-1.2,0-2.2,0.7-2.2,1.7c0,1.1,0.9,1.7,2.9,2.6l2.3,1.1
			c2,1,2.8,2.5,2.8,3.7C194.5,105.6,192.2,107.5,189.4,107.5z"/>
		<g>
			<path class="st1" d="M8.5,97.6c0,7.3,4.2,13.6,10.4,16.6l-8.8-24C9.1,92.4,8.5,95,8.5,97.6z"/>
			<path class="st1" d="M39.4,96.7c0-2.3-0.8-3.8-1.5-5.1c-0.9-1.5-1.8-2.8-1.8-4.3c0-1.7,1.3-3.3,3.1-3.3c0.1,0,0.2,0,0.2,0
				c-3.3-3-7.6-4.8-12.4-4.8c-6.4,0-12.1,3.3-15.4,8.3c0.4,0,0.8,0,1.2,0c1.9,0,4.9-0.2,4.9-0.2c1-0.1,1.1,1.4,0.1,1.5
				c0,0-1,0.1-2.1,0.2l6.7,19.9l4-12.1L23.5,89c-1-0.1-1.9-0.2-1.9-0.2c-1-0.1-0.9-1.6,0.1-1.5c0,0,3,0.2,4.8,0.2
				c1.9,0,4.9-0.2,4.9-0.2c1-0.1,1.1,1.4,0.1,1.5c0,0-1,0.1-2.1,0.2l6.6,19.8l1.8-6.1C38.8,100.1,39.4,98.3,39.4,96.7z"/>
			<path class="st1" d="M27.3,99.3l-5.5,16c1.6,0.5,3.4,0.7,5.2,0.7c2.1,0,4.2-0.4,6.1-1c0-0.1-0.1-0.2-0.1-0.3L27.3,99.3z"/>
			<path class="st1" d="M43.1,88.8c0.1,0.6,0.1,1.2,0.1,1.9c0,1.9-0.3,4-1.4,6.6l-5.6,16.2c5.5-3.2,9.1-9.1,9.1-15.9
				C45.3,94.4,44.5,91.4,43.1,88.8z"/>
			<path class="st1" d="M26.9,76.2c-11.8,0-21.4,9.6-21.4,21.4c0,11.8,9.6,21.4,21.4,21.4c11.8,0,21.4-9.6,21.4-21.4
				C48.4,85.8,38.8,76.2,26.9,76.2z M26.9,118.1c-11.3,0-20.5-9.2-20.5-20.5c0-11.3,9.2-20.5,20.5-20.5c11.3,0,20.5,9.2,20.5,20.5
				C47.4,108.9,38.2,118.1,26.9,118.1z"/>
		</g>
	</g>
</g>
<g id="Layer_1_1_">
</g>
</svg>
