<svg xmlns="http://www.w3.org/2000/svg" viewBox="0 0 281.69 123.17"><defs><style>.a{fill:#4950a4;}.b,.n{fill:#2e318f;}.c{fill:#febb6c;}.d,.m{fill:#faae43;}.e{fill:#2e3190;}.f{fill:#2f3290;}.g{fill:#fefefe;}.h{fill:#4a51a5;}.i{fill:#e6e6e6;}.j{fill:#e7e7e7;}.k{fill:#dedede;}.l{fill:#737474;}.l,.m,.n{fill-rule:evenodd;}</style></defs><title>logo</title><path class="a" d="M75.11,147.32c-13.62-8.06-22.17-19.86-26-35.16,1-5.25,4.24-9.36,7.52-13.24a55.77,55.77,0,0,1,24.2-16.74c1.14-.4,2.57-1.53,3.57.36a14.86,14.86,0,0,1,.26,4.1q0,19.55,0,39.08c0,3.65.14,3.8,3.73,3.78,7.33,0,6.47.76,6.53-6.39,0-5.32,0-10.63,0-16,0-3.28.64-3.86,4-3.9a56.76,56.76,0,0,1,9.74.46,7.87,7.87,0,0,1,6.59,5.4,74.68,74.68,0,0,1,3.52,13.66c-6.56,9-14.63,16.17-25,20.44C87.78,145.66,81.68,147.62,75.11,147.32Z" transform="translate(-38.05 -32.99)"/><path class="b" d="M75.11,147.32c3.46-.67,7-1.2,10.39-2,12.58-3.07,22.56-10.13,30.67-20.08.51-.61.64-2.17,2.16-1.58,1.42.89,1.36,2.48,1.74,3.84a2.51,2.51,0,0,0,2.72,2.14c2.39,0,4.79-.09,7.17,0,1.58.07,1.63-.55,1.26-1.83-1.73-5.9-3.37-11.83-5.15-17.71a11.82,11.82,0,0,1-.65-3c0-3.55,1.55-6.84,1.81-10.35.06-.76.21-1.52.27-2.29.82-2.45,1.28-5,2.44-7.37,1-.73,1.81-.12,2.57.4A58.63,58.63,0,0,1,155.86,119a4,4,0,0,1,.2,2.5c-3.26,8.22-8.61,14.9-15.21,20.64C122.86,157.77,94.38,160,75.11,147.32Z" transform="translate(-38.05 -32.99)"/><path class="c" d="M83.87,81.88q-24.06,7.47-34.76,30.28C44.49,93,48.52,75.84,61.32,60.9,72,48.48,85.72,42.25,102,41.3c7.59,4.19,13.17,10.44,17.9,17.54a36.22,36.22,0,0,1,3.53,6.51c.31.79,1.28,2-.59,2.3-9.44-3.47-19.21-2.63-28.94-2.14-2.14.11-4.27.15-6.41.17-1.91,0-2.8.84-2.78,2.8,0,3.33,0,6.67,0,10C84.63,79.66,84.83,80.91,83.87,81.88Z" transform="translate(-38.05 -32.99)"/><path class="d" d="M123.57,67.33a56.38,56.38,0,0,0-20-24.48A4.58,4.58,0,0,1,102,41.3c27.57-1.67,53.56,19.37,58.19,46.85,2,11.59.82,22.66-4.08,33.34-3-10.29-8-19.43-15.79-26.94a54.26,54.26,0,0,0-10-7.64c-1.29-1.37-.72-3.07-.77-4.63-.14-4.35-.93-8.46-3.66-12C125.13,69.27,123.72,68.79,123.57,67.33Z" transform="translate(-38.05 -32.99)"/><path class="b" d="M158,51.94A10.29,10.29,0,0,1,168.16,41.8a10.35,10.35,0,1,1,.09,20.7A10.26,10.26,0,0,1,158,51.94Z" transform="translate(-38.05 -32.99)"/><path class="e" d="M50,145.58a5.92,5.92,0,0,1-5.73,5.8,6.13,6.13,0,0,1-6.17-6.22,5.9,5.9,0,0,1,5.73-5.76A6.05,6.05,0,0,1,50,145.58Z" transform="translate(-38.05 -32.99)"/><path class="f" d="M148.59,33a5.45,5.45,0,0,1,5.29,5.26,5.16,5.16,0,0,1-5.14,5,5.22,5.22,0,0,1-5.1-5.34A5.11,5.11,0,0,1,148.59,33Z" transform="translate(-38.05 -32.99)"/><path class="g" d="M123.57,67.33c4.92,3.14,6.2,8.09,6.6,13.44.16,2,.1,4.09.15,6.14a46.09,46.09,0,0,1-2.19,7.27c-1.33,4.1-4.88,5.08-8.34,6,2.88,1.52,5.52,3.41,6.26,7l6.57,23.06c-4,0-7.64,0-11.31,0-1,0-1.32-.34-1.52-1.26-.41-1.83-1-3.63-1.46-5.44-1.08-4.31-2.07-8.65-3.26-12.93s-3.26-6.06-7.86-6.35c-3.17-.2-6.35-.06-9.52-.24-1.63-.09-2,.48-2,2,.07,7.21-.07,14.41.09,21.61,0,2.25-.66,2.77-2.73,2.6a42.56,42.56,0,0,0-6.68,0c-1.94.15-2.44-.47-2.43-2.41.08-14.32,0-28.64,0-43,0-1-.07-2-.11-3.08,0-4.8.12-9.6,0-14.4,0-1.78.63-2.49,2.34-2.53,9.58-.21,19.15-1.24,28.74-.11A27.58,27.58,0,0,1,123.57,67.33Z" transform="translate(-38.05 -32.99)"/><path class="h" d="M126.05,107.24a13.35,13.35,0,0,0-8.47-7.18c4.78-.85,8.26-2.41,10.55-5.88a41.13,41.13,0,0,1-1.61,9.79A16.64,16.64,0,0,0,126.05,107.24Z" transform="translate(-38.05 -32.99)"/><path class="a" d="M117.88,81.09a14,14,0,0,1-.62,9.27c-1,2.75-3.54,3.72-6.17,3.86-4.61.25-9.24.15-13.86.26-1.34,0-1.54-.61-1.52-1.72.06-4.45.07-8.9.1-13.35a2.32,2.32,0,0,1,1.82-.82c5.9,0,11.83-.55,17.63,1.06C116.24,79.92,117.31,80.05,117.88,81.09Z" transform="translate(-38.05 -32.99)"/><path class="c" d="M117.88,81.09c-7.23-2.22-14.64-2.1-22.07-1.68-.28-5.3-.28-5.38,5-5.28,4,.08,8.05-.54,12,.51C116.3,75.56,117.67,77.38,117.88,81.09Z" transform="translate(-38.05 -32.99)"/><path class="d" d="M301.48,95.27c5.64,0,10.88,0,16.12,0,1.19,0,1.29.43.75,1.36-2.62,4.54-5.23,9.09-8,14Z" transform="translate(-38.05 -32.99)"/><path class="d" d="M283.07,155H264l9.56-16.62Z" transform="translate(-38.05 -32.99)"/><path class="b" d="M297.54,138.43c3.22,5.59,6.3,10.93,9.63,16.73H299c-3.14,0-6.29,0-9.43,0-1.14,0-1.55-.26-.87-1.41C291.62,148.76,294.49,143.74,297.54,138.43Z" transform="translate(-38.05 -32.99)"/><path class="b" d="M276.36,95.29c5.46,0,10.93,0,16.4,0,1.62,0,2.37.2,1.25,2-2.86,4.75-5.57,9.59-8.48,14.65L276.2,95.8C276.06,95.57,276.12,95.41,276.36,95.29Z" transform="translate(-38.05 -32.99)"/><path class="d" d="M276,134.12l9.5-16.52L295,134.12Z" transform="translate(-38.05 -32.99)"/><path class="d" d="M288,116.21h19.06l-9.51,16.59Z" transform="translate(-38.05 -32.99)"/><path class="b" d="M283.08,113.3H265.65c-1,0-1.68-.12-.94-1.39,2.92-5,5.79-10,8.8-15.27Z" transform="translate(-38.05 -32.99)"/><path class="d" d="M288.05,113.17c3.22-5.61,6.29-11,9.5-16.52L307,113.17Z" transform="translate(-38.05 -32.99)"/><path class="d" d="M295.11,137.09l-9.59,16.65c-3-5.29-5.92-10.36-8.86-15.41-.66-1.15-.05-1.25.85-1.25Z" transform="translate(-38.05 -32.99)"/><path class="b" d="M309.56,153.75,300,137.09h17.76c.95,0,1.18.37.69,1.21C315.51,143.38,312.6,148.46,309.56,153.75Z" transform="translate(-38.05 -32.99)"/><path class="i" d="M266,95.52c-1.5.08-1.67,1.19-1.86,2.28C263.77,96.31,263.55,94.89,266,95.52Z" transform="translate(-38.05 -32.99)"/><path class="j" d="M319.49,104.66a1.64,1.64,0,0,1,0,1.71A1.44,1.44,0,0,1,319.49,104.66Z" transform="translate(-38.05 -32.99)"/><path class="i" d="M264.1,106a1.72,1.72,0,0,1,0,1.81A1.74,1.74,0,0,1,264.1,106Z" transform="translate(-38.05 -32.99)"/><path class="j" d="M319.42,111.5c-.2-.85-.38-1.35.08-1.82A1.74,1.74,0,0,1,319.42,111.5Z" transform="translate(-38.05 -32.99)"/><path class="j" d="M319.47,114.63a1.67,1.67,0,0,1,0,1.73A1.49,1.49,0,0,1,319.47,114.63Z" transform="translate(-38.05 -32.99)"/><path class="i" d="M264.12,116a2.07,2.07,0,0,1,0,1.85A1.74,1.74,0,0,1,264.12,116Z" transform="translate(-38.05 -32.99)"/><path class="j" d="M319.23,121.12a5.58,5.58,0,0,1,.13-1.28c.62-.07.28.47.33.75a1.59,1.59,0,0,1-.14.65Z" transform="translate(-38.05 -32.99)"/><path class="i" d="M264.11,121.11a1.65,1.65,0,0,1,0,1.73A1.49,1.49,0,0,1,264.11,121.11Z" transform="translate(-38.05 -32.99)"/><path class="j" d="M319.37,124.73a1.21,1.21,0,0,1,.15,1.51C318.93,125.79,319.4,125.25,319.37,124.73Z" transform="translate(-38.05 -32.99)"/><path class="i" d="M263.87,127.61a5.69,5.69,0,0,1,.13-1.29c.62-.07.28.48.33.76a1.74,1.74,0,0,1-.13.64Z" transform="translate(-38.05 -32.99)"/><path class="j" d="M319.42,131.45c-.2-.85-.38-1.35.08-1.83A1.76,1.76,0,0,1,319.42,131.45Z" transform="translate(-38.05 -32.99)"/><path class="i" d="M264.12,132.9a1.72,1.72,0,0,1,0-1.81C264.48,131.61,264.41,132.12,264.12,132.9Z" transform="translate(-38.05 -32.99)"/><path class="j" d="M319.38,134.49c.51.67.25,1.18.3,1.9C319,135.75,319.22,135.24,319.38,134.49Z" transform="translate(-38.05 -32.99)"/><path class="i" d="M263.87,137.58a5.5,5.5,0,0,1,.13-1.28c.62-.07.28.47.33.75a1.59,1.59,0,0,1-.14.65Z" transform="translate(-38.05 -32.99)"/><path class="i" d="M270.76,95.76c-.45-.05-1.27,0-1.28-.14-.08-.61.47-.27.75-.32a1.66,1.66,0,0,1,.64.13Z" transform="translate(-38.05 -32.99)"/><path class="k" d="M276.36,95.29l-.16.51L274,95.7A3.91,3.91,0,0,1,276.36,95.29Z" transform="translate(-38.05 -32.99)"/><path class="j" d="M319.65,101.58c-.62-.77-.35-1.29-.42-2C320,100.27,319.59,100.79,319.65,101.58Z" transform="translate(-38.05 -32.99)"/><path class="i" d="M264.14,102.9A2.28,2.28,0,0,1,264,101,1.72,1.72,0,0,1,264.14,102.9Z" transform="translate(-38.05 -32.99)"/><path class="j" d="M319.47,139.57a1.65,1.65,0,0,1,0,1.72A1.47,1.47,0,0,1,319.47,139.57Z" transform="translate(-38.05 -32.99)"/><path class="i" d="M264.34,141.24a5.58,5.58,0,0,1-.13,1.28c-.62.07-.27-.47-.33-.75a1.77,1.77,0,0,1,.14-.65Z" transform="translate(-38.05 -32.99)"/><path class="j" d="M319.42,144.68c.29.54.47,1,0,1.5C319,145.65,319.31,145.14,319.42,144.68Z" transform="translate(-38.05 -32.99)"/><path class="i" d="M263.87,147.56a5.62,5.62,0,0,1,.13-1.29c.62-.07.28.47.33.75a1.59,1.59,0,0,1-.14.65Z" transform="translate(-38.05 -32.99)"/><path class="j" d="M319.23,151.05a5.5,5.5,0,0,1,.13-1.28c.62-.08.28.47.33.75a1.58,1.58,0,0,1-.14.64Z" transform="translate(-38.05 -32.99)"/><path class="i" d="M264.1,152.72a1.67,1.67,0,0,1,0-1.73A1.49,1.49,0,0,1,264.1,152.72Z" transform="translate(-38.05 -32.99)"/><path class="j" d="M284.34,155.41c.54-.29,1-.47,1.5,0C285.32,155.8,284.8,155.52,284.34,155.41Z" transform="translate(-38.05 -32.99)"/><path class="j" d="M309.28,155.41c.54-.29,1-.47,1.5,0C310.25,155.8,309.74,155.52,309.28,155.41Z" transform="translate(-38.05 -32.99)"/><path class="j" d="M315.69,155.32c-.54.3-1,.47-1.5,0C314.72,154.93,315.23,155.21,315.69,155.32Z" transform="translate(-38.05 -32.99)"/><path class="l" d="M254,156.16H223.59a30.55,30.55,0,0,1-30.46-30.46h0a30.54,30.54,0,0,1,30.46-30.45h0A30.54,30.54,0,0,1,254,125.7v30.46Zm-30.45-47.68a17.23,17.23,0,1,0,17.22,17.22A17.22,17.22,0,0,0,223.59,108.48Z" transform="translate(-38.05 -32.99)"/><path class="m" d="M254,153.16H223.59a30.54,30.54,0,0,1-30.46-30.45h0a30.55,30.55,0,0,1,30.46-30.46h0A30.54,30.54,0,0,1,254,122.71v30.45Zm-30.45-47.68a17.23,17.23,0,1,0,17.22,17.23A17.23,17.23,0,0,0,223.59,105.48Z" transform="translate(-38.05 -32.99)"/><path class="n" d="M223.59,111.23a13,13,0,1,1-13,13A13,13,0,0,1,223.59,111.23Z" transform="translate(-38.05 -32.99)"/><path class="d" d="M178.23,103.13a6.13,6.13,0,0,1-4.12-1.48,5.75,5.75,0,0,1,0-8.24,5.89,5.89,0,0,1,4.08-1.59,6,6,0,0,1,4,1.44A5.13,5.13,0,0,1,184,97.45a5.31,5.31,0,0,1-1.69,4.18A5.87,5.87,0,0,1,178.23,103.13Z" transform="translate(-38.05 -32.99)"/><path class="b" d="M184,115.07v33.41a7.48,7.48,0,0,1-1.65,5.25,5.48,5.48,0,0,1-4.19,1.77,5.2,5.2,0,0,1-4.13-1.82,7.66,7.66,0,0,1-1.59-5.2V115.41a7.42,7.42,0,0,1,1.59-5.17,5.32,5.32,0,0,1,4.13-1.73,5.52,5.52,0,0,1,4.19,1.73A6.74,6.74,0,0,1,184,115.07Z" transform="translate(-38.05 -32.99)"/></svg>